<?xml version="1.0" standalone="no"?>
<!DOCTYPE svg PUBLIC "-//W3C//DTD SVG 20010904//EN"
 "http://www.w3.org/TR/2001/REC-SVG-20010904/DTD/svg10.dtd">
<svg version="1.0" xmlns="http://www.w3.org/2000/svg"
 width="500.000000pt" height="500.000000pt" viewBox="0 0 500.000000 500.000000"
 preserveAspectRatio="xMidYMid meet">

<g transform="translate(0.000000,500.000000) scale(0.100000,-0.100000)"
fill="#000000" stroke="none">
<path d="M2580 4543 c-27 -138 -51 -216 -69 -228 -6 -3 -46 10 -87 30 -85 41
-199 145 -223 203 -7 17 -16 32 -20 32 -11 0 -62 -141 -78 -215 -8 -38 -15
-71 -17 -72 -2 -2 -34 19 -72 46 -76 54 -128 105 -169 166 l-27 40 4 -130 c3
-71 8 -138 13 -148 6 -14 0 -13 -36 8 -90 52 -251 85 -411 85 l-93 0 55 -37
c68 -45 142 -105 137 -110 -2 -2 -49 -10 -103 -18 -131 -20 -204 -36 -204 -47
0 -4 6 -8 13 -8 16 0 145 -64 170 -84 35 -27 15 -46 -98 -95 -200 -86 -515
-254 -502 -268 3 -2 54 -17 115 -33 122 -32 170 -53 179 -77 11 -28 -38 -102
-112 -171 -75 -70 -173 -126 -277 -159 -32 -10 -58 -21 -58 -24 0 -7 76 -31
219 -68 62 -17 116 -32 118 -35 3 -2 -39 -49 -94 -103 -66 -67 -119 -109 -162
-132 -45 -24 -60 -36 -50 -41 16 -9 131 -45 171 -54 18 -4 28 -13 28 -24 -1
-30 -48 -153 -75 -193 l-25 -39 42 6 c24 4 65 13 93 20 27 7 51 11 53 10 1 -2
-2 -16 -8 -32 -16 -42 -58 -93 -92 -114 l-31 -18 49 -7 c123 -16 124 -16 124
-37 0 -29 -17 -58 -64 -107 l-41 -44 72 7 c39 3 79 9 89 13 15 5 16 1 10 -41
-4 -26 -14 -72 -22 -103 -8 -31 -13 -58 -10 -60 2 -3 13 0 24 6 18 9 20 6 26
-50 7 -76 11 -82 104 -184 120 -131 223 -205 307 -219 96 -16 93 -14 132 -89
26 -49 66 -101 128 -164 91 -93 153 -132 208 -133 50 0 74 -37 83 -126 13
-127 10 -218 -8 -245 -8 -14 -43 -35 -79 -50 -258 -105 -294 -125 -350 -191
-75 -86 -93 -96 -243 -128 -75 -16 -157 -38 -183 -50 -50 -22 -204 -122 -221
-143 -5 -6 -30 -64 -56 -127 -26 -63 -50 -121 -53 -127 -4 -10 97 -13 485 -13
l489 0 6 108 c4 59 9 172 13 252 7 166 24 219 79 252 35 20 61 55 121 163 l39
70 -2 115 c-1 63 -6 137 -11 163 -9 47 -9 49 12 43 11 -4 82 -13 156 -21 74
-8 173 -19 220 -25 114 -13 361 -13 455 1 42 6 78 10 80 8 2 -3 -5 -36 -16
-74 -39 -142 -52 -233 -40 -297 20 -116 85 -216 183 -284 29 -21 42 -39 53
-78 25 -81 45 -224 45 -313 l0 -83 481 0 c459 0 480 1 467 18 -7 10 -54 72
-105 138 -88 116 -94 122 -155 146 -35 14 -115 40 -178 57 -164 46 -268 80
-320 106 -25 13 -92 65 -150 116 -117 103 -206 172 -263 201 -38 19 -38 20
-32 61 3 23 20 100 37 171 35 144 22 130 153 166 181 49 275 117 323 233 17
39 36 93 42 118 8 32 34 74 84 136 92 114 141 195 157 256 11 45 8 112 -7 150
-10 26 36 22 76 -8 18 -14 35 -24 36 -22 1 1 -2 40 -6 87 -7 75 -4 150 6 150
2 0 24 -21 49 -46 44 -43 144 -99 165 -92 5 2 -4 23 -20 48 -53 79 -74 172
-71 311 l1 36 106 -54 c59 -30 108 -52 111 -49 2 2 -11 25 -31 50 -54 71 -96
166 -103 231 l-6 58 29 -7 c35 -9 90 -49 105 -77 6 -12 13 -19 15 -16 7 7 -23
148 -47 217 -25 75 -113 255 -129 265 -6 4 14 31 47 64 48 49 146 201 129 201
-2 0 -33 -7 -68 -15 -60 -14 -174 -23 -182 -14 -2 2 27 42 66 89 72 88 168
225 168 240 0 5 -19 2 -42 -6 -113 -40 -288 -70 -340 -59 -28 7 -29 9 -23 43
20 107 70 224 132 311 l18 24 -30 -7 c-49 -12 -148 -66 -181 -97 -39 -38 -60
-30 -74 25 -53 209 -158 384 -269 449 l-31 18 0 -125 0 -126 -68 77 c-137 155
-340 333 -381 333 -5 0 5 -33 24 -72 36 -75 73 -204 62 -214 -3 -4 -44 12 -90
35 -106 53 -193 130 -236 210 -18 34 -36 61 -41 61 -5 0 -14 -26 -20 -57z
m-298 -144 c69 -57 187 -119 229 -119 22 0 30 8 47 48 11 26 26 74 33 107 6
33 15 63 19 68 3 4 20 -13 37 -37 43 -61 123 -122 223 -170 47 -22 88 -45 92
-51 5 -6 13 -2 23 10 20 25 15 97 -13 180 -11 33 -18 62 -16 64 8 8 364 -358
364 -374 0 -21 16 -19 26 3 4 9 10 67 13 127 l6 110 53 -55 c65 -66 142 -217
172 -335 11 -44 28 -86 37 -92 29 -22 67 -15 99 18 16 17 45 39 65 49 l35 19
-27 -59 c-31 -64 -69 -198 -69 -242 0 -42 29 -52 129 -45 47 4 120 15 161 26
41 11 76 19 77 17 6 -5 -170 -228 -181 -231 -6 -2 -23 -6 -38 -9 -34 -8 -38
-44 -9 -70 18 -16 27 -16 132 -3 63 9 115 14 117 12 9 -9 -37 -75 -89 -128
-32 -32 -59 -64 -59 -69 0 -6 8 -22 19 -36 44 -63 151 -312 151 -352 0 -5 -16
-2 -35 6 -51 21 -84 18 -94 -9 -13 -34 4 -121 39 -194 16 -36 30 -67 30 -69 0
-2 -25 10 -55 27 -66 37 -91 33 -101 -18 -10 -54 4 -167 29 -244 13 -38 19
-69 14 -69 -6 0 -35 25 -65 55 -43 44 -58 54 -75 49 -12 -4 -24 -9 -27 -11 -3
-3 -5 -47 -5 -99 0 -52 0 -94 -1 -94 -1 0 -15 5 -33 11 -25 9 -36 8 -56 -5
-39 -26 -49 -19 -23 17 14 17 32 46 41 63 16 30 15 32 -8 54 -14 13 -27 31
-31 42 -6 19 -34 26 -34 8 0 -6 11 -22 25 -36 31 -31 31 -39 0 -79 -13 -18
-40 -66 -60 -108 -19 -41 -47 -87 -62 -103 -35 -38 -53 -108 -59 -234 -10
-188 -88 -391 -169 -441 l-30 -18 3 75 c3 47 0 80 -7 87 -8 8 -11 5 -11 -11 0
-12 -3 -22 -6 -22 -3 0 -34 24 -67 53 -145 125 -379 260 -507 293 -99 25 -214
16 -315 -26 -44 -19 -82 -37 -85 -40 -3 -4 -16 -11 -30 -15 -45 -13 -169 -85
-250 -145 -92 -69 -188 -181 -152 -180 4 1 19 18 34 40 78 112 347 280 547
340 60 19 89 22 161 18 79 -5 98 -10 201 -57 129 -60 181 -90 294 -175 105
-79 165 -135 176 -164 12 -32 -16 -91 -49 -103 -41 -16 -111 15 -205 89 -86
67 -267 165 -364 197 -39 13 -77 16 -155 13 -87 -3 -112 -7 -162 -31 -65 -30
-138 -85 -163 -123 -26 -40 -7 -39 28 1 36 41 102 88 138 100 23 7 24 6 18
-31 -4 -21 -22 -61 -42 -89 -43 -63 -45 -78 -4 -39 39 37 56 70 70 132 8 38
15 51 32 56 35 9 125 7 132 -3 8 -14 -30 -110 -70 -171 -41 -63 -45 -85 -11
-50 38 39 96 141 96 170 0 37 20 61 47 54 22 -6 33 -30 33 -77 0 -16 10 -50
21 -78 18 -42 20 -53 9 -78 -20 -48 -5 -60 18 -14 l22 42 -25 53 c-26 56 -34
128 -13 128 7 0 30 -7 53 -15 38 -15 40 -18 43 -61 1 -25 11 -62 21 -82 10
-20 26 -63 35 -96 12 -40 21 -55 28 -48 12 12 -13 110 -41 157 -27 46 -41 94
-30 100 14 9 103 -45 199 -121 47 -36 106 -77 133 -89 l47 -22 -58 -17 c-32
-9 -64 -16 -71 -16 -7 0 -31 -9 -54 -19 -58 -27 -261 -45 -412 -38 -182 9
-522 55 -572 78 -23 10 -52 19 -65 19 -88 1 -262 166 -333 316 -27 58 -29 58
-127 69 -72 8 -158 66 -274 186 -105 109 -112 121 -120 205 -7 78 9 131 59
190 32 38 59 47 87 27 23 -16 71 -106 107 -201 39 -104 123 -252 143 -252 9 0
53 62 53 74 -1 6 -20 63 -43 126 -49 136 -110 352 -110 391 0 22 12 37 60 74
33 25 60 50 60 54 0 5 -7 25 -15 44 -42 100 -40 377 5 625 32 174 70 217 261
287 56 20 125 48 155 61 58 26 220 61 231 51 3 -4 -15 -55 -41 -113 -28 -63
-43 -111 -38 -116 5 -5 34 25 69 74 67 91 122 148 109 113 -27 -73 -11 -105
25 -53 49 71 122 148 140 148 10 0 46 -27 80 -60 34 -33 63 -60 65 -60 2 0 4
19 4 43 0 77 10 75 111 -28 51 -53 97 -102 102 -110 11 -21 37 -19 37 3 0 9
-9 52 -19 95 -10 42 -17 77 -15 77 2 0 27 -30 55 -66 63 -80 84 -74 45 12 -14
31 -24 59 -22 61 11 12 230 -19 301 -43 142 -47 292 -136 334 -199 31 -47 115
-296 138 -410 13 -66 17 -136 17 -260 -1 -174 -15 -287 -64 -510 -11 -49 -23
-100 -25 -112 -3 -13 -1 -23 4 -23 12 0 45 125 77 295 48 255 49 475 5 640
-11 39 -24 97 -31 130 -21 109 -79 245 -126 295 -107 113 -297 191 -528 215
-115 12 -132 17 -155 39 -31 29 -41 32 -41 12 0 -13 -4 -13 -27 -1 -15 8 -31
11 -35 7 -4 -4 10 -41 32 -82 38 -72 50 -115 30 -108 -5 2 -52 43 -104 91
l-96 88 -17 -35 c-9 -20 -22 -36 -28 -36 -7 0 -28 13 -46 30 -47 41 -75 38
-126 -12 -36 -36 -43 -39 -43 -22 0 35 -11 34 -66 -7 -30 -22 -54 -38 -54 -36
0 2 9 30 20 62 23 67 23 65 11 65 -6 0 -16 -12 -23 -27 -11 -24 -23 -29 -102
-44 -111 -22 -202 -49 -336 -101 -218 -84 -264 -152 -300 -438 -24 -197 -26
-354 -5 -430 34 -121 34 -121 -29 -168 -63 -48 -63 -49 -41 -165 19 -100 19
-141 0 -157 -20 -17 -35 -3 -39 36 -2 15 -8 30 -15 32 -16 5 -14 27 4 42 8 7
15 16 15 21 0 16 -29 10 -39 -8 -9 -17 -11 -17 -45 0 -20 9 -47 17 -61 17 -30
0 -77 -56 -106 -127 -12 -30 -24 -51 -27 -49 -3 3 6 48 18 101 23 93 23 118
-2 98 -7 -6 -34 -14 -60 -17 l-47 -7 25 55 c16 35 23 64 19 76 -8 24 -42 40
-85 40 l-29 0 33 55 c32 52 53 126 41 145 -3 5 -20 0 -38 -10 -18 -10 -52 -22
-76 -26 l-43 -7 15 29 c23 45 60 173 54 188 -3 7 -40 21 -81 31 -42 9 -76 20
-76 23 0 4 28 28 61 52 70 51 199 187 199 210 0 31 -18 40 -135 70 -113 29
-134 36 -124 43 2 1 45 23 94 47 70 35 107 62 165 120 42 41 86 96 98 122 21
42 22 51 10 75 -17 34 -81 66 -179 89 l-77 19 66 38 c102 60 213 114 367 182
136 60 140 62 143 94 4 40 -15 63 -81 101 l-47 27 111 16 c161 22 168 45 49
140 l-35 28 70 -6 c164 -16 294 -56 351 -111 20 -19 38 -34 39 -34 4 0 -2 98
-10 180 l-8 75 57 -52 c31 -29 81 -67 111 -85 32 -19 58 -42 61 -55 7 -27 24
-31 24 -5 0 10 4 22 9 28 6 5 17 45 26 88 9 44 23 97 32 118 l16 39 18 -29 c9
-17 46 -54 81 -83z m1628 -1009 c8 -5 12 -12 9 -15 -8 -8 -39 5 -39 16 0 11
11 11 30 -1z m-2482 -1335 c8 -22 28 -76 44 -120 29 -78 31 -125 5 -125 -6 0
-20 17 -29 38 -10 20 -28 57 -42 82 -38 67 -53 134 -36 155 21 25 43 14 58
-30z m2277 -38 c11 -84 -34 -205 -70 -191 -17 7 -48 -14 -40 -27 3 -4 12 -6
20 -2 23 8 17 -8 -15 -47 -37 -45 -51 -33 -40 37 18 110 100 208 100 121 0
-25 3 -29 10 -18 15 23 12 56 -5 70 -36 30 -105 -60 -127 -162 -16 -76 -31
-60 -17 17 12 67 30 105 68 151 14 17 39 48 54 68 39 51 54 47 62 -17z m-176
-353 c-6 -8 -15 -12 -18 -8 -3 4 0 9 7 11 6 3 9 10 6 15 -4 7 -2 8 5 4 9 -6 9
-11 0 -22z"/>
<path d="M2779 4083 c-4 -70 -8 -86 -41 -141 -21 -35 -38 -68 -38 -75 0 -20
69 55 89 97 l20 41 0 -40 c1 -22 -4 -57 -10 -78 -12 -45 -5 -59 15 -31 35 46
21 295 -16 302 -13 3 -16 -9 -19 -75z"/>
<path d="M2116 4142 c-27 -45 -4 -259 33 -296 27 -27 36 -15 17 23 -9 17 -18
50 -21 73 -16 139 -19 135 39 45 33 -51 80 -96 90 -86 2 2 -20 37 -49 78 -30
41 -62 96 -71 122 -17 47 -27 58 -38 41z"/>
<path d="M2350 4088 c0 -27 38 -112 65 -146 37 -46 44 -26 12 30 -14 24 -31
62 -38 86 -11 38 -39 60 -39 30z"/>
<path d="M2577 4093 c-4 -3 -7 -25 -7 -48 0 -22 -9 -58 -20 -80 -24 -47 -25
-56 -5 -48 27 10 55 78 55 133 0 46 -7 60 -23 43z"/>
<path d="M3228 4095 c-4 -4 -2 -19 4 -34 6 -14 11 -72 12 -128 1 -57 4 -103 9
-103 13 0 27 49 27 95 0 83 -33 189 -52 170z"/>
<path d="M1849 4056 c16 -19 44 -21 39 -3 -3 6 -15 14 -28 15 -21 3 -22 2 -11
-12z"/>
<path d="M3030 3938 c0 -37 -4 -78 -10 -92 -7 -20 -6 -26 4 -26 32 0 49 129
21 166 -13 17 -14 13 -15 -48z"/>
<path d="M1674 3964 c15 -58 113 -172 177 -204 21 -11 39 -18 39 -15 0 3 -35
40 -78 83 -43 42 -87 96 -98 119 -22 48 -50 60 -40 17z"/>
<path d="M3455 3958 c-2 -7 -5 -34 -8 -60 -3 -32 -18 -69 -51 -123 -26 -43
-44 -80 -41 -84 9 -8 58 53 87 107 13 23 26 42 30 42 9 0 1 -43 -18 -103 -16
-48 -14 -65 5 -53 17 11 45 109 45 161 0 79 -34 158 -49 113z"/>
<path d="M1272 3870 c-35 -4 -68 -12 -74 -18 -8 -8 27 -10 126 -7 130 4 165
12 114 27 -29 8 -85 7 -166 -2z"/>
<path d="M1930 3862 c0 -16 61 -100 77 -106 26 -10 24 -3 -15 57 -32 50 -62
74 -62 49z"/>
<path d="M1310 3779 c0 -6 14 -43 30 -83 23 -54 45 -86 90 -131 75 -74 78 -55
5 31 -70 83 -72 104 -6 63 27 -17 67 -33 90 -36 55 -8 54 13 -1 27 -54 14
-106 48 -154 100 -37 40 -54 49 -54 29z"/>
<path d="M3650 3620 c0 -23 -29 -83 -68 -142 -14 -21 -22 -42 -17 -46 18 -18
119 141 113 180 -4 29 -28 36 -28 8z"/>
<path d="M1185 3535 c-27 -8 -54 -14 -58 -15 -5 0 -6 -4 -3 -9 3 -5 25 -5 48
0 24 4 69 8 101 9 42 0 58 3 55 13 -6 17 -84 19 -143 2z"/>
<path d="M3825 3329 c-6 -8 -17 -27 -25 -42 -8 -16 -40 -56 -72 -90 -32 -34
-58 -65 -58 -69 0 -20 26 -3 76 46 30 30 54 49 54 43 0 -7 -14 -39 -30 -72
-32 -66 -35 -75 -20 -75 16 0 69 101 81 155 13 61 9 126 -6 104z"/>
<path d="M1315 3313 c-37 -20 -151 -28 -227 -15 -32 5 -58 6 -58 2 0 -39 154
-121 253 -135 60 -9 64 10 5 25 -68 18 -130 39 -165 58 l-32 17 97 0 c99 1
170 21 180 53 5 16 -17 15 -53 -5z"/>
<path d="M1766 3123 c-3 -10 -10 -58 -17 -108 -15 -115 -22 -133 -67 -172 -50
-43 -34 -53 21 -13 53 38 64 70 74 216 6 88 1 118 -11 77z"/>
<path d="M3391 3065 c-1 -48 14 -160 25 -198 7 -21 80 -77 101 -77 21 0 6 18
-37 45 -44 28 -54 53 -65 169 -9 93 -24 129 -24 61z"/>
<path d="M979 3011 c-49 -28 -122 -84 -103 -79 28 7 203 94 204 101 1 16 -57
4 -101 -22z"/>
<path d="M1227 2936 c-3 -8 -32 -24 -64 -36 -45 -17 -76 -21 -138 -19 -96 3
-132 -6 -114 -28 33 -39 180 -93 256 -93 71 0 68 23 -3 25 -29 0 -84 14 -136
34 -49 19 -88 34 -88 35 0 0 44 1 98 1 77 0 106 4 142 21 47 21 80 48 80 65 0
14 -27 11 -33 -5z"/>
<path d="M3807 2833 c-13 -12 -7 -42 14 -77 28 -48 11 -46 -37 4 -36 37 -64
51 -64 32 0 -10 75 -81 122 -117 21 -15 35 -32 31 -38 -3 -5 -1 -7 5 -3 6 3
13 2 17 -4 7 -11 55 -14 55 -4 0 3 -18 28 -40 54 -22 26 -52 73 -66 104 -27
60 -27 60 -37 49z"/>
<path d="M2860 2765 c-18 -22 -28 -195 -11 -195 6 0 14 14 18 30 6 33 18 46
28 30 24 -40 14 45 -18 144 -1 4 -9 1 -17 -9z"/>
<path d="M3148 2663 l3 -88 -123 -63 c-145 -75 -197 -86 -234 -51 -28 26 -54
104 -54 160 0 21 -4 41 -10 44 -16 10 -12 -106 4 -154 14 -39 14 -44 -16 -113
-53 -125 -44 -219 31 -309 35 -41 52 -33 22 10 -63 88 -77 178 -40 257 17 34
26 43 38 38 35 -15 71 -15 102 0 40 20 56 20 66 1 6 -11 40 -19 116 -27 79 -9
107 -16 107 -26 0 -11 -13 -13 -62 -7 -35 3 -85 11 -113 17 -27 5 -61 8 -75 6
l-25 -4 30 -15 c34 -18 128 -38 195 -42 l45 -2 0 -67 c0 -78 10 -97 20 -36 18
121 6 107 118 134 15 3 30 11 33 16 4 7 -17 8 -64 3 l-70 -7 -1 86 c-1 47 3
86 7 86 5 0 23 -5 41 -11 51 -18 49 -1 -3 22 -26 11 -46 25 -44 31 2 6 40 27
84 46 78 35 80 35 122 20 29 -11 42 -12 39 -4 -2 6 -22 18 -45 26 -39 13 -45
13 -94 -9 -95 -41 -108 -43 -117 -18 -5 12 -11 48 -15 80 -11 86 -21 69 -18
-30z m14 -193 c10 -72 5 -80 -56 -80 -52 0 -155 16 -164 25 -18 18 146 108
188 103 21 -3 26 -9 32 -48z"/>
<path d="M2626 2672 c-11 -75 -48 -182 -73 -205 -12 -12 -32 -30 -43 -40 -12
-10 -20 -27 -18 -39 4 -29 28 -36 28 -9 0 12 18 39 39 60 28 28 45 58 59 103
25 81 37 164 24 172 -6 3 -13 -15 -16 -42z"/>
<path d="M1715 2664 c-30 -14 -30 -14 15 -7 68 10 109 6 138 -13 14 -10 83
-46 152 -80 l125 -63 -65 -1 c-95 -1 -284 -25 -306 -39 -16 -10 -11 -11 26 -7
133 17 239 22 366 19 78 -1 148 -3 157 -3 8 0 26 -11 41 -25 24 -23 27 -30 21
-65 -9 -52 5 -51 30 3 16 34 24 42 44 39 34 -3 69 33 86 92 21 71 18 136 -7
136 -5 0 -6 -18 -2 -45 5 -37 2 -55 -19 -98 -26 -51 -27 -52 -74 -54 -36 -1
-53 3 -70 19 -15 14 -43 22 -99 29 -67 7 -101 20 -257 94 -192 91 -237 101
-302 69z"/>
<path d="M1348 2643 c-10 -2 -18 -11 -18 -18 0 -17 42 -5 48 13 4 12 0 13 -30
5z"/>
<path d="M1172 2601 c-17 -19 -44 -34 -77 -42 -27 -6 -56 -13 -62 -15 -25 -6
-1 -33 50 -55 59 -26 151 -37 161 -20 5 7 -1 11 -14 11 -29 0 -150 31 -150 39
0 3 21 13 47 21 29 9 55 27 70 47 32 42 12 54 -25 14z"/>
<path d="M1380 2523 c-19 -8 -30 -17 -24 -19 14 -6 79 22 68 29 -5 3 -25 -2
-44 -10z"/>
<path d="M3720 2485 c46 -47 59 -52 40 -13 -15 28 -50 57 -70 58 -8 0 5 -19
30 -45z"/>
<path d="M3667 2462 c-7 -10 110 -139 118 -130 8 8 -25 59 -69 106 -30 33 -41
38 -49 24z"/>
<path d="M2285 2404 c-15 -10 -36 -11 -90 -4 -91 12 -426 12 -444 1 -22 -14 0
-35 67 -67 104 -49 272 -42 385 16 21 11 51 20 67 20 19 0 33 7 40 19 13 25 1
33 -25 15z m-275 -24 c0 -7 6 -6 18 1 12 7 39 8 87 2 l70 -8 -27 -18 c-32 -22
-154 -41 -219 -35 -25 3 -75 19 -110 36 l-64 30 123 1 c76 1 122 -3 122 -9z"/>
<path d="M2359 2289 c-21 -21 -22 -50 -3 -56 9 -3 54 57 54 73 0 12 -33 1 -51
-17z"/>
<path d="M1160 2165 c-15 -18 -26 -150 -16 -189 13 -51 21 -24 21 68 0 148 28
155 101 27 46 -80 64 -103 64 -82 0 16 -53 113 -87 159 -26 35 -62 42 -83 17z"/>
<path d="M2399 2089 c-37 -40 -50 -69 -30 -69 5 0 12 9 16 19 3 11 21 33 40
50 20 17 30 33 24 37 -6 3 -28 -13 -50 -37z"/>
<path d="M2850 2101 c0 -5 11 -12 25 -15 16 -4 33 -22 47 -49 22 -41 23 -41
26 -14 l3 27 29 -20 c15 -11 63 -35 106 -53 44 -18 85 -43 96 -58 11 -14 25
-58 31 -98 13 -75 34 -95 29 -26 -5 69 -31 143 -56 163 -13 10 -65 36 -115 57
-50 21 -91 42 -91 47 0 11 -85 48 -111 48 -10 0 -19 -4 -19 -9z"/>
<path d="M2447 2033 c-12 -11 -7 -25 7 -20 7 3 32 -5 54 -18 53 -30 65 -14 15
19 -37 26 -63 32 -76 19z"/>
<path d="M2798 1992 c-16 -9 -28 -22 -28 -29 0 -18 11 -16 40 7 14 11 30 20
37 20 6 0 15 5 18 10 10 16 -38 11 -67 -8z"/>
<path d="M1217 1993 c-15 -14 -5 -22 29 -25 36 -3 37 -5 59 -72 20 -61 36 -85
58 -86 10 0 9 18 -3 25 -5 3 -17 32 -26 63 -24 81 -40 102 -78 102 -18 0 -36
-3 -39 -7z"/>
<path d="M2023 1931 c-112 -58 -121 -66 -144 -116 -20 -43 -26 -145 -9 -145 6
0 10 18 10 40 0 22 6 55 13 73 17 40 82 99 144 131 58 29 90 53 83 59 -3 3
-46 -16 -97 -42z"/>
<path d="M1217 1913 c-14 -13 -6 -36 25 -79 48 -67 167 -147 246 -165 55 -12
38 16 -21 34 -74 23 -187 105 -212 152 -15 28 -17 39 -7 42 6 3 12 9 12 14 0
10 -33 12 -43 2z"/>
<path d="M1520 1769 c0 -5 -4 -7 -10 -4 -12 7 -12 -2 0 -30 5 -11 9 -14 9 -7
1 8 6 10 14 6 9 -5 9 -4 0 6 -6 7 -9 19 -6 26 3 8 2 14 -1 14 -3 0 -6 -5 -6
-11z"/>
<path d="M2087 1297 c-36 -23 -63 -32 -108 -35 -68 -5 -80 -22 -15 -22 54 0
122 28 155 64 30 32 28 32 -32 -7z"/>
<path d="M1970 302 c0 -5 66 -39 148 -76 81 -38 156 -77 168 -87 22 -20 36
-17 27 7 -5 14 -115 70 -258 130 -89 38 -85 37 -85 26z"/>
<path d="M2950 279 c-41 -17 -111 -44 -155 -60 -72 -26 -105 -48 -105 -71 0
-13 18 -9 27 6 7 12 142 68 280 117 29 10 61 23 70 28 42 24 -45 9 -117 -20z"/>
</g>
</svg>
